<svg width="114" height="82" viewBox="0 0 114 82" fill="none" xmlns="http://www.w3.org/2000/svg">
<g clip-path="url(#clip0_1_24)">
<path d="M101.705 39.9869H52.373C42.9619 39.9869 33.9493 36.2301 27.3274 29.5513L0.57419 2.58932C-0.146819 1.86831 0.365477 0.63501 1.39007 0.63501H54.536C69.7721 0.63501 84.0784 7.95894 92.9772 20.3299L103.944 35.566C105.272 37.4065 103.944 39.9869 101.686 39.9869H101.705Z" fill="#843CFF"/>
<path d="M75.3505 49.6445H50.5137C41.4821 49.6445 32.811 53.2495 26.4358 59.6627L6.68393 79.5663C5.96292 80.2873 6.47522 81.5206 7.49981 81.5206H38.0858C47.8194 81.5206 57.0786 77.3464 63.5108 70.0414L77.4377 54.2551C79.0315 52.4526 77.7412 49.6255 75.3505 49.6255V49.6445Z" fill="#843CFF"/>
</g>
<g clip-path="url(#clip1_1_24)">
<path d="M80.0655 66.8761C78.8932 67.8785 78.1845 69.3376 78.1215 70.88C78.0585 72.4213 78.6469 73.9333 79.7359 75.0279C80.7878 76.0843 82.1873 76.667 83.6779 76.667C85.2799 76.667 86.8031 75.9774 87.8584 74.7759L95.3126 66.3676L104.019 75.074C105.05 76.1045 106.42 76.6726 107.877 76.6726C109.335 76.6726 110.705 76.1045 111.735 75.074C112.766 74.0435 113.334 72.6733 113.334 71.2153C113.334 69.7584 112.766 68.3881 111.735 67.3576L102.564 58.1866L104.862 55.5958C105.541 55.7893 106.24 55.8871 106.941 55.8871C109.082 55.8871 111.057 54.968 112.361 53.3649C114.162 51.152 114.386 48.0256 112.931 45.3999C112.604 44.8104 111.62 44.834 111.308 45.4348L109.651 48.6264C109.253 49.3948 108.247 49.7143 107.472 49.3149L105.782 48.4351C105.398 48.2371 105.116 47.9008 104.987 47.4901C104.856 47.0795 104.894 46.6419 105.092 46.2594L106.96 42.6729C107.109 42.3849 107.099 42.0474 106.932 41.7684C106.767 41.4961 106.48 41.3296 106.088 41.3274C103.947 41.3274 101.97 42.2454 100.667 43.8485C99.2209 45.6249 98.7776 48.0009 99.4526 50.2745L93.1391 55.6813L84.4564 47.0008C84.9795 46.2403 85.1393 45.2964 84.84 44.3885C84.489 43.3231 83.6272 42.5525 82.5371 42.3241L80.2163 41.837C79.737 41.7346 79.2375 41.8854 78.8921 42.2319C78.5445 42.5795 78.3971 43.0745 78.4972 43.556L78.9844 45.8769C79.2825 47.3011 80.5549 48.3361 82.0106 48.3361C82.6147 48.3361 83.1784 48.1494 83.6711 47.8074L92.2807 56.417L80.0655 66.8761ZM82.0106 47.2303C81.2164 47.2303 80.2995 46.7128 80.0846 45.6856L79.5986 43.403C79.5761 43.295 79.6099 43.2613 79.6875 43.1836C79.7438 43.1274 79.8169 43.25 79.9463 43.25C79.9586 43.25 79.971 43.25 79.9845 43.25L82.3054 43.5819C82.9995 43.727 83.5474 44.0645 83.7713 44.7429C83.9839 45.3875 83.8466 46.0704 83.4124 46.5609L83.2234 46.7555C82.8814 47.0593 82.4617 47.2303 82.0106 47.2303ZM110.939 68.1541C111.758 68.972 112.208 70.0588 112.208 71.2164C112.208 72.374 111.758 73.4619 110.939 74.2798C109.305 75.9166 106.45 75.9166 104.814 74.2798L96.0596 65.525L101.816 59.0315L110.939 68.1541ZM100.633 50.2723C99.924 48.263 100.263 46.1266 101.538 44.5595C102.559 43.3063 104.078 42.5525 105.801 42.4625L104.093 45.7408C103.757 46.391 103.693 47.1324 103.913 47.8299C104.134 48.5274 104.614 49.0978 105.263 49.4341L106.953 50.3139C107.343 50.5153 107.778 50.621 108.214 50.621C109.241 50.621 110.174 50.0551 110.648 49.145L112.127 46.2954C113.154 48.4385 112.918 50.8978 111.488 52.655C109.973 54.5158 107.266 55.2268 104.861 54.4179C104.647 54.347 104.412 54.4089 104.26 54.5776L87.0146 74.03C86.172 74.9908 84.9559 75.5409 83.6779 75.5409C82.4888 75.5409 81.3716 75.0763 80.5335 74.2336C79.6526 73.3483 79.1959 72.1726 79.2454 70.925C79.2949 69.6774 79.8461 68.5434 80.7967 67.7311L100.469 50.8865C100.645 50.7346 100.71 50.4916 100.633 50.2723Z" fill="#1E0C45"/>
<path d="M100.362 64.6621L107.141 71.4414C107.251 71.5516 107.395 71.6056 107.539 71.6056C107.683 71.6056 107.827 71.5505 107.937 71.4414C108.157 71.222 108.157 70.8654 107.937 70.646L101.158 63.8668C100.939 63.6474 100.582 63.6474 100.363 63.8668C100.143 64.0861 100.142 64.4428 100.362 64.6621Z" fill="#1E0C45"/>
<path d="M83.6981 68.8651C82.4572 68.8651 81.4481 69.8743 81.4481 71.1151C81.4481 72.356 82.4572 73.3651 83.6981 73.3651C84.939 73.3651 85.9481 72.356 85.9481 71.1151C85.9481 69.8743 84.939 68.8651 83.6981 68.8651ZM83.6981 72.2401C83.0771 72.2401 82.5731 71.7361 82.5731 71.1151C82.5731 70.4941 83.0771 69.9901 83.6981 69.9901C84.3191 69.9901 84.8231 70.4941 84.8231 71.1151C84.8231 71.7361 84.3191 72.2401 83.6981 72.2401Z" fill="#1E0C45"/>
</g>
<defs>
<clipPath id="clip0_1_24">
<rect width="105" height="82" fill="white"/>
</clipPath>
<clipPath id="clip1_1_24">
<rect width="36" height="36" fill="white" transform="translate(78 41)"/>
</clipPath>
</defs>
</svg>
