<?xml version="1.0" standalone="no"?>
<!DOCTYPE svg PUBLIC "-//W3C//DTD SVG 20010904//EN"
 "http://www.w3.org/TR/2001/REC-SVG-20010904/DTD/svg10.dtd">
<svg version="1.0" xmlns="http://www.w3.org/2000/svg"
 width="128.000000pt" height="128.000000pt" viewBox="0 0 128.000000 128.000000"
 preserveAspectRatio="xMidYMid meet">

<g transform="translate(0.000000,128.000000) scale(0.100000,-0.100000)"
fill="#000000" stroke="none">
<path d="M530 1232 c-125 -30 -201 -71 -290 -156 -177 -170 -221 -437 -109
-665 39 -78 191 -239 197 -208 2 9 12 17 24 17 18 0 19 4 14 34 -8 41 12 63
43 47 27 -15 29 -14 33 12 5 33 45 36 58 3 10 -29 20 -32 38 -14 19 19 55 -19
41 -43 -11 -22 -4 -39 17 -39 23 0 18 -51 -6 -57 -23 -6 -25 -21 -6 -45 9 -13
27 -18 60 -18 40 0 55 6 91 35 l43 36 21 -27 c12 -15 21 -23 21 -18 0 4 -17
25 -37 46 -35 36 -36 39 -20 55 16 16 20 15 66 -31 l49 -48 66 42 c120 76 205
193 245 340 82 294 -98 606 -397 689 -109 30 -175 33 -262 13z m336 -353 c31
-12 74 -37 94 -56 40 -35 80 -108 80 -144 0 -18 -6 -15 -39 22 -74 84 -196
129 -300 109 -30 -6 -56 -12 -58 -14 -2 -2 13 -14 32 -27 98 -66 135 -214 76
-298 -30 -42 -96 -71 -163 -71 -107 0 -240 96 -301 217 -24 47 -56 177 -46
187 2 3 31 -5 64 -16 88 -29 157 -15 244 50 85 64 212 80 317 41z m-68 -112
c2 -12 -3 -17 -17 -17 -12 0 -21 6 -21 13 0 31 32 34 38 4z m-7 -456 c-17 -13
-22 -24 -17 -36 8 -22 -19 -55 -45 -55 -12 0 -16 -5 -13 -14 10 -26 -13 -26
-37 0 l-23 25 22 6 c12 3 22 11 22 18 0 20 68 75 93 75 l22 0 -24 -19z m109
-16 c0 -3 -6 -14 -12 -25 -10 -15 -10 -22 0 -32 9 -9 16 -7 32 7 19 18 20 18
20 -1 0 -31 -15 -45 -53 -54 -43 -9 -64 8 -58 49 5 42 20 61 46 61 14 0 25 -2
25 -5z"/>
<path d="M442 228 c-15 -15 -15 -51 0 -66 39 -39 100 17 63 58 -20 23 -45 26
-63 8z"/>
</g>
</svg>
